<?xml version="1.0" encoding="iso-8859-1"?>
<!-- Uploaded to: SVG Repo, www.svgrepo.com, Generator: SVG Repo Mixer Tools -->
<svg fill="#000000" height="800px" width="800px" version="1.1" id="Layer_1" xmlns="http://www.w3.org/2000/svg" xmlns:xlink="http://www.w3.org/1999/xlink" 
	 viewBox="0 0 512 512" xml:space="preserve">
<g>
	<g>
		<path d="M329.584,446.924h-54.048v-46.965H236.46v46.965h-54.047c-10.79,0-19.538,8.748-19.538,19.538s8.748,19.538,19.538,19.538
			h147.17c10.79,0,19.538-8.748,19.538-19.538S340.374,446.924,329.584,446.924z"/>
	</g>
</g>
<g>
	<g>
		<path d="M292.47,335.162h-72.941H0v23.339c0,8.495,6.911,15.407,15.406,15.407h481.188c8.495,0,15.406-6.912,15.406-15.407
			v-23.339H292.47z"/>
	</g>
</g>
<g>
	<g>
		<path d="M496.593,26.001H15.406C6.911,26.001,0,32.912,0,41.407v267.705h36.029C38.332,189.77,136.117,93.393,255.999,93.393
			c41.389,0,80.141,11.495,113.245,31.449l12.922-17.653c4.249-5.803,12.399-7.065,18.204-2.816c5.805,4.25,7.066,12.4,2.816,18.205
			l-12.456,17.015c50.802,39.466,83.911,100.668,85.239,169.519h36.029V41.407C511.999,32.912,505.088,26.001,496.593,26.001z"/>
	</g>
</g>
<g>
	<g>
		<path d="M366.263,295.11c-4.593-27.761-19.035-51.599-39.406-68.26l-38.799,53.002c6.403,5.458,11.407,12.507,14.38,20.539h65.959
			C367.335,298.859,366.587,297.072,366.263,295.11z"/>
	</g>
</g>
<g>
	<g>
		<path d="M255.999,201.658c-32.011,0-61.097,13.363-81.586,35.216c-0.095,0.142-0.177,0.288-0.279,0.427
			c-0.675,0.927-1.452,1.731-2.3,2.424c-13.291,15.196-22.584,34.139-26.099,55.384c-0.324,1.962-1.072,3.749-2.133,5.282h65.959
			c6.985-18.876,25.165-32.369,46.437-32.369c2.709,0,5.365,0.228,7.957,0.649l40.899-55.872
			C290.05,205.643,273.461,201.658,255.999,201.658z"/>
	</g>
</g>
<g>
	<g>
		<path d="M449.543,300.392c-3.773-56.674-32-106.762-74.193-139.786l-33.2,45.354c1.144,0.918,2.29,1.833,3.406,2.789
			c24.662,21.129,41.143,50.289,46.407,82.109c0.574,3.474-0.281,6.853-2.137,9.534H449.543z"/>
	</g>
</g>
<g>
	<g>
		<path d="M120.036,290.857c3.527-21.322,12.113-41.437,24.801-58.754l-45.292-32.935c-0.048-0.035-0.09-0.076-0.137-0.111
			c-21.09,28.8-34.44,63.607-36.951,101.335h59.716C120.317,297.709,119.462,294.331,120.036,290.857z"/>
	</g>
</g>
<g>
	<g>
		<path d="M116.211,179.075l46.008,33.456c1.382-1.286,2.787-2.552,4.225-3.784c21.626-18.526,48.411-29.822,76.531-32.504v-56.356
			C193.313,123.196,148.71,145.272,116.211,179.075z"/>
	</g>
</g>
<g>
	<g>
		<path d="M269.025,119.889v56.356c17.997,1.714,35.447,6.95,51.345,15.364l33.421-45.656
			C328.59,131.182,299.777,121.938,269.025,119.889z"/>
	</g>
</g>
</svg>