<svg xmlns="http://www.w3.org/2000/svg"  viewBox="0 0 24 24" width="50px" height="50px"><path d="M 14.822266 0 C 13.622266 2.9605947e-16 12.495156 0.48289062 11.660156 1.3378906 C 11.424156 1.3458906 11.205953 1.3644844 11.001953 1.3964844 C 7.9859531 1.8334844 5.6371563 4.2690312 5.1601562 7.4570312 C 4.9281562 8.9790312 5.1236094 10.489234 5.7246094 11.865234 C 5.0356094 12.667234 4.6523438 13.689578 4.6523438 14.767578 C 4.6523438 16.187578 4.6721719 17.341078 4.7011719 18.205078 C 4.7311719 19.093078 4.7629687 19.684188 4.7929688 19.992188 C 5.0199688 22.276187 6.9473437 24 9.2773438 24 L 9.5898438 23.984375 C 10.760844 23.883375 11.825359 23.318875 12.568359 22.421875 C 12.624359 22.358875 12.679469 22.294516 12.730469 22.228516 C 13.509469 22.245516 14.296062 22.145875 15.039062 21.921875 C 18.397063 20.918875 20.388391 17.778891 19.775391 14.462891 C 19.606391 13.522891 19.248031 12.640078 18.707031 11.830078 C 19.056031 11.184078 19.242188 10.457656 19.242188 9.7226562 L 19.242188 4.4414062 C 19.242187 1.9924063 17.260266 0 14.822266 0 z M 14.822266 2 C 16.157266 2 17.243187 3.0954062 17.242188 4.4414062 L 17.242188 9.7246094 C 17.242188 10.270609 17.052031 10.811094 16.707031 11.246094 L 16.205078 11.876953 L 16.716797 12.501953 C 17.297797 13.212953 17.653641 13.968266 17.806641 14.822266 C 18.231641 17.121266 16.827797 19.302813 14.466797 20.007812 L 14.464844 20.007812 C 13.775844 20.213813 13.033219 20.277266 12.324219 20.197266 L 11.642578 20.119141 L 11.324219 20.726562 C 11.252219 20.864563 11.169781 20.987047 11.050781 21.123047 C 10.630781 21.630047 10.050875 21.938141 9.421875 21.994141 L 9.2773438 22 C 7.9593437 22 6.91025 21.072922 6.78125 19.794922 C 6.75325 19.509922 6.7272187 18.959719 6.6992188 18.136719 C 6.6702187 17.289719 6.6503906 16.162531 6.6503906 14.769531 C 6.6503906 14.022531 6.9863125 13.323562 7.5703125 12.851562 L 8.2265625 12.322266 L 7.8164062 11.587891 C 7.1684063 10.424891 6.9336719 9.1008125 7.1386719 7.7578125 C 7.4846719 5.4468125 9.1528281 3.686 11.298828 3.375 C 11.476828 3.348 11.675297 3.3339844 11.904297 3.3339844 C 11.962297 3.3339844 12.023938 3.3349375 12.085938 3.3359375 L 12.591797 3.3496094 L 12.902344 2.9511719 C 13.374344 2.3461719 14.073266 2 14.822266 2 z M 14.876953 3.25 C 14.324953 3.25 13.876953 3.697 13.876953 4.25 L 13.876953 5.3203125 C 12.995953 4.5883125 12.072375 4.5537187 11.484375 4.6367188 C 9.920375 4.8597187 8.7424219 6.1158906 8.4824219 7.8378906 C 8.1684219 9.9098906 9.2342656 11.849297 11.197266 12.779297 C 13.431266 13.837297 14.363578 14.580687 14.517578 15.429688 C 14.646578 16.138688 14.063391 16.576328 13.525391 16.736328 C 12.372391 17.084328 10.811875 16.477281 9.921875 14.363281 C 9.736875 13.924281 9.2717344 13.684531 8.8027344 13.769531 C 8.3357344 13.863531 8 14.274 8 14.75 C 8 18.255 8.1239062 19.657797 8.1289062 19.716797 C 8.1769062 20.234797 8.6120469 20.625 9.1230469 20.625 C 9.1530469 20.625 9.18475 20.622141 9.21875 20.619141 C 9.76875 20.570141 10.172047 20.085156 10.123047 19.535156 C 10.122047 19.528156 10.077969 18.999734 10.042969 17.802734 C 11.348969 18.814734 12.875656 19.018297 14.097656 18.654297 C 15.795656 18.149297 16.778328 16.676266 16.486328 15.072266 C 16.155328 13.248266 14.544688 12.151656 12.054688 10.972656 C 10.660688 10.312656 10.324938 9.0327188 10.460938 8.1367188 C 10.560937 7.4767187 10.956531 6.7312344 11.769531 6.6152344 C 13.308531 6.3652344 13.883672 9.7335781 13.888672 9.7675781 C 13.963672 10.286578 14.425219 10.658094 14.949219 10.621094 C 15.471219 10.583094 15.876953 10.149 15.876953 9.625 L 15.876953 4.25 C 15.876953 3.697 15.428953 3.25 14.876953 3.25 z"/></svg>